<?xml version="1.0" encoding="UTF-8" standalone="no"?>
<!-- Created with Inkscape (http://www.inkscape.org/) -->

<svg
   width="382.71875"
   height="382.71875"
   viewBox="0 0 382.71875 382.71875"
   version="1.1"
   id="svg1"
   xml:space="preserve"
   xmlns="http://www.w3.org/2000/svg"
   xmlns:svg="http://www.w3.org/2000/svg"><defs
     id="defs1" /><circle
     style="opacity:1;fill:#ffffff;stroke-width:0.908854"
     id="path1"
     cx="191.35938"
     cy="191.35938"
     r="183.47368" /><g
     id="layer3"
     transform="matrix(0.98076923,0,0,0.98076923,-61.318208,-59.277801)"><path
       d="m 312.83127,251.07116 c -24.91692,-1.14042 -34.39591,12.02488 -45.32668,25.87031 -10.93076,13.84543 -21.41835,35.07354 -51.63231,33.96953 -2.16047,10e-5 -4.31931,-0.129 -6.46679,-0.38671 l 32.08203,32.54296 c 0.26077,-0.1731 0.52448,-0.34174 0.79101,-0.50585 4.33137,-2.65838 9.31439,-4.0652 14.39649,-4.06446 1.12692,5.6e-4 2.25273,0.0704 3.37109,0.20899 0.67764,0.0836 1.35194,0.1924 2.02149,0.32617 3.66925,0.73334 7.15036,2.2074 10.23047,4.33203 l 75.07031,-71.38281 c -3.1189,-3.53529 -5.27709,-7.81268 -6.26758,-12.42188 -8.60373,-5.56223 -18.35021,-8.48873 -28.26953,-8.48828 z"
       style="opacity:1;fill:#218ad9;fill-opacity:1;stroke-width:1.80029"
       id="path19" /><path
       d="M 257.63205,64.192261 A 191.36,191.36 0 0 0 66.272671,255.55163 191.36,191.36 0 0 0 110.21603,377.0614 a 191.36,191.36 0 0 0 2.125,2.42382 190.52286,190.52286 0 0 0 14.39258,15.25 191.36,191.36 0 0 0 4.90039,4.29688 190.52286,190.52286 0 0 0 13.79492,11.20117 191.36,191.36 0 0 0 7.68555,5.13477 190.52286,190.52286 0 0 0 12.91406,7.91601 191.36,191.36 0 0 0 10.25,5.05469 190.52286,190.52286 0 0 0 11.98633,5.31641 191.36,191.36 0 0 0 14.15235,4.80468 190.52286,190.52286 0 0 0 7.78515,2.34961 191.36,191.36 0 0 0 18.59375,3.69727 190.52286,190.52286 0 0 0 4.59375,0.8164 191.36,191.36 0 0 0 24.24219,1.58789 191.36,191.36 0 0 0 73.06641,-14.51171 A 191.36,191.36 0 0 0 448.99142,255.55163 191.36,191.36 0 0 0 257.63205,64.192261 Z m -0.0527,51.650389 a 27.514481,27.514481 0 0 1 2.9082,0.15429 27.514481,27.514481 0 0 1 13.12109,4.99805 27.514481,27.514481 0 0 1 0.002,0 27.514481,27.514481 0 0 1 8.99414,10.92578 27.514481,27.514481 0 0 1 2.48828,11.43555 27.514481,27.514481 0 0 1 -2.6211,11.72265 l 73.10157,74.15235 a 27.514481,27.514481 0 0 1 12.42773,-2.9668 27.514481,27.514481 0 0 1 11.28516,2.41992 27.514481,27.514481 0 0 1 16.16601,23.23242 27.514481,27.514481 0 0 1 0.0625,1.86133 27.514481,27.514481 0 0 1 -22.33594,27.02539 27.514481,27.514481 0 0 1 -5.17773,0.49024 27.514481,27.514481 0 0 1 -7.51367,-1.04492 27.514481,27.514481 0 0 1 -0.89453,-0.27149 27.514481,27.514481 0 0 1 -1.88086,-0.67969 l -76.1211,75.04297 a 27.514481,27.514481 0 0 1 0.75977,1.78321 27.514481,27.514481 0 0 1 0.28516,0.77734 27.514481,27.514481 0 0 1 1.55273,9.10937 27.514481,27.514481 0 0 1 -0.31055,4.1211 27.514481,27.514481 0 0 1 -27.20312,23.39258 27.514481,27.514481 0 0 1 -16.58789,-5.56055 27.514481,27.514481 0 0 1 -10.92774,-21.95313 27.514481,27.514481 0 0 1 2.93555,-12.36718 27.514481,27.514481 0 0 1 0.60938,-1.14063 L 182.3215,299.51647 168.50705,284.98913 a 59.040001,64.32 0 0 1 -0.004,-0.006 l -6.58789,-6.92773 a 27.514481,27.514481 0 0 1 -2.98828,1.37109 27.514481,27.514481 0 0 1 -9.95898,1.86719 27.514481,27.514481 0 0 1 -27.51563,-27.51563 27.514481,27.514481 0 0 1 2.01172,-10.32422 27.514481,27.514481 0 0 1 5.04102,-8.07031 27.514481,27.514481 0 0 1 5.99218,-5.00781 27.514481,27.514481 0 0 1 5.05664,-2.45117 27.514481,27.514481 0 0 1 9.41407,-1.66016 27.514481,27.514481 0 0 1 10.31054,2.00391 27.514481,27.514481 0 0 1 0.96289,0.41015 27.514481,27.514481 0 0 1 0.082,0.0371 l 48.33789,-45.96289 12.44922,-11.83789 13.32812,-12.67383 a 27.514481,27.514481 0 0 1 -4.37305,-14.88476 27.514481,27.514481 0 0 1 0.48243,-5.13867 27.514481,27.514481 0 0 1 0.87304,-3.39258 27.514481,27.514481 0 0 1 26.15821,-18.98242 z"
       style="opacity:1;fill:#218ad9;fill-opacity:1;stroke-width:1.75095"
       id="path21" /><path
       d="m 273.33127,165.91491 c -0.25485,0.17819 -0.5127,0.35204 -0.77344,0.52149 -4.45945,2.89458 -9.662,4.4352 -14.97851,4.43554 -4.41451,-2.6e-4 -8.76414,-1.06271 -12.68165,-3.09765 l -8.50585,8.08984 h -0.002 l -8.2207,7.81836 h -0.002 l -56.84571,54.05469 c 3.35534,4.67575 5.16005,10.28593 5.16016,16.04101 2.3e-4,5.942 -1.92313,11.7244 -5.48242,16.48242 -0.1847,0.24664 -0.37353,0.49017 -0.56641,0.73047 l 20.63867,20.93555 c 7.29889,4.07273 15.27936,6.18571 23.36133,6.18555 24.50687,-4.8e-4 32.15203,-14.60909 42.40148,-28.90057 11.1687,-15.57326 25.00569,-30.93957 56.31727,-30.93928 9.98566,-4e-4 19.83075,2.3416 28.73633,6.83594 0.65908,-1.98521 1.54239,-3.88878 2.63281,-5.67383 0.16407,-0.26784 0.33272,-0.53285 0.50586,-0.79492 z"
       style="opacity:1;fill:#218ad9;fill-opacity:1;stroke-width:1.75095"
       id="path20" /></g></svg>
