<?xml version="1.0" encoding="UTF-8" standalone="no"?>
<!-- Created with Inkscape (http://www.inkscape.org/) -->

<svg
   width="301.28528"
   height="305.26584"
   viewBox="0 0 301.28528 305.26584"
   version="1.1"
   id="svg1"
   xml:space="preserve"
   xmlns="http://www.w3.org/2000/svg"
   xmlns:svg="http://www.w3.org/2000/svg"><defs
     id="defs1" /><g
     id="layer3"
     transform="translate(-525.11761,514.36487)"><path
       id="path31"
       style="opacity:1;fill:#218ad9;fill-opacity:1;stroke-width:1.09807"
       d="m 674.76603,-514.36487 a 30.247395,30.247395 0 0 0 -28.75586,20.86719 30.247395,30.247395 0 0 0 -0.96094,3.73047 30.247395,30.247395 0 0 0 -0.5293,5.64844 30.247395,30.247395 0 0 0 4.80664,16.36328 l -14.65234,13.93359 -13.68555,13.01367 -53.13867,50.52735 a 30.247395,30.247395 0 0 0 -0.0898,-0.041 30.247395,30.247395 0 0 0 -1.0586,-0.44922 30.247395,30.247395 0 0 0 -11.33398,-2.20312 30.247395,30.247395 0 0 0 -10.34961,1.82422 30.247395,30.247395 0 0 0 -5.5586,2.69531 30.247395,30.247395 0 0 0 -6.58789,5.50391 30.247395,30.247395 0 0 0 -5.54101,8.87304 30.247395,30.247395 0 0 0 -2.21289,11.34961 30.247395,30.247395 0 0 0 30.25,30.24805 30.247395,30.247395 0 0 0 10.94726,-2.05274 30.247395,30.247395 0 0 0 3.28516,-1.50781 l 7.24219,7.61719 a 64.904232,70.708674 0 0 0 0.004,0.008 l 15.1875,15.9707 55.38672,58.25 a 30.247395,30.247395 0 0 0 -0.66992,1.25391 30.247395,30.247395 0 0 0 -3.22656,13.5957 30.247395,30.247395 0 0 0 12.01172,24.13282 30.247395,30.247395 0 0 0 18.23632,6.11328 30.247395,30.247395 0 0 0 29.9043,-25.7168 30.247395,30.247395 0 0 0 0.3418,-4.5293 30.247395,30.247395 0 0 0 -1.70703,-10.01562 30.247395,30.247395 0 0 0 -0.3125,-0.85352 30.247395,30.247395 0 0 0 -0.83594,-1.96093 l 83.68164,-82.4961 a 30.247395,30.247395 0 0 0 2.06836,0.7461 30.247395,30.247395 0 0 0 0.98242,0.29882 30.247395,30.247395 0 0 0 8.25977,1.14844 30.247395,30.247395 0 0 0 5.69336,-0.53906 30.247395,30.247395 0 0 0 24.55468,-29.70898 30.247395,30.247395 0 0 0 -0.0703,-2.04688 30.247395,30.247395 0 0 0 -17.77148,-25.53906 30.247395,30.247395 0 0 0 -12.40625,-2.66016 30.247395,30.247395 0 0 0 -13.66211,3.26172 l -80.36133,-81.51758 a 30.247395,30.247395 0 0 0 2.88086,-12.88672 30.247395,30.247395 0 0 0 -2.73438,-12.57226 30.247395,30.247395 0 0 0 -9.88867,-12.01172 30.247395,30.247395 0 0 1 -0.002,0 30.247395,30.247395 0 0 0 -14.42383,-5.49414 30.247395,30.247395 0 0 0 -3.19726,-0.16992 z m 17.3164,54.14258 78.81641,79.94922 c -0.19034,0.2881 -0.37432,0.5786 -0.55469,0.87305 -1.19872,1.96235 -2.16998,4.05588 -2.89453,6.23828 -9.79014,-4.94075 -20.6143,-7.51608 -31.5918,-7.51563 -34.42165,-3.3e-4 -49.6321,16.89358 -61.91015,34.01368 -11.26749,15.711 -19.67224,31.769 -46.61329,31.76953 -8.88472,1.7e-4 -17.65778,-2.32157 -25.68164,-6.79883 l -22.68945,-23.01563 c 0.21204,-0.26415 0.42001,-0.53159 0.62305,-0.80273 3.91282,-5.23062 6.02759,-11.58694 6.02734,-18.11914 -1.2e-4,-6.32671 -1.98522,-12.49459 -5.67383,-17.63477 l 62.49219,-59.42383 h 0.002 l 9.03711,-8.5957 h 0.004 l 9.34961,-8.89258 c 4.30664,2.23707 9.08842,3.40596 13.94141,3.40625 5.84458,-3.7e-4 11.5644,-1.69486 16.46679,-4.87695 0.28661,-0.18626 0.56948,-0.37835 0.84961,-0.57422 z m 43.42383,93.61524 c 10.90458,-4.9e-4 21.61786,3.21732 31.07617,9.33203 1.08887,5.06702 3.46194,9.76981 6.89063,13.65625 l -82.52539,78.47265 c -3.38605,-2.33565 -7.21433,-3.95749 -11.24805,-4.76367 -0.73604,-0.14705 -1.47771,-0.26552 -2.22266,-0.35742 -1.22944,-0.15235 -2.46622,-0.22986 -3.70508,-0.23047 -5.58689,-8.2e-4 -11.06459,1.54632 -15.82617,4.46875 -0.29301,0.18041 -0.58247,0.36635 -0.86914,0.55664 l -35.26953,-35.77539 c 2.36079,0.2833 4.73432,0.42394 7.10938,0.42383 33.215,1.21366 44.74329,-22.12311 56.75976,-37.34375 12.01648,-15.22065 22.43826,-29.69314 49.83008,-28.43945 z" /></g></svg>
